<svg width="48" height="48" viewBox="0 0 48 48" fill="none" xmlns="http://www.w3.org/2000/svg">
<mask id="path-1-inside-1" fill="white">
<path fill-rule="evenodd" clip-rule="evenodd" d="M18.4965 9C17.6093 9 16.8281 9.5845 16.5777 10.4357L15.2804 14.8465C14.9049 16.1232 13.7332 17 12.4023 17H8C3.58172 17 0 20.5817 0 25V36C0 40.4183 3.58172 44 8 44H40C44.4183 44 48 40.4183 48 36V25C48 20.5817 44.4183 17 40 17H36.5977C35.2668 17 34.0951 16.1233 33.7196 14.8465L32.4223 10.4357C32.1719 9.5845 31.3907 9 30.5035 9H18.4965Z"/>
</mask>
<path d="M16.5777 10.4357L18.4965 11V11L16.5777 10.4357ZM32.4223 10.4357L34.341 9.87133V9.87133L32.4223 10.4357ZM33.7196 14.8465L31.8008 15.4108L33.7196 14.8465ZM18.4965 11L18.4965 11V7C16.722 7 15.1597 8.169 14.659 9.87134L18.4965 11ZM17.1992 15.4108L18.4965 11L14.659 9.87133L13.3617 14.2822L17.1992 15.4108ZM8 19H12.4023V15H8V19ZM2 25C2 21.6863 4.68629 19 8 19V15C2.47715 15 -2 19.4772 -2 25H2ZM2 36V25H-2V36H2ZM8 42C4.68629 42 2 39.3137 2 36H-2C-2 41.5228 2.47715 46 8 46V42ZM40 42H8V46H40V42ZM46 36C46 39.3137 43.3137 42 40 42V46C45.5228 46 50 41.5228 50 36H46ZM46 25V36H50V25H46ZM40 19C43.3137 19 46 21.6863 46 25H50C50 19.4772 45.5228 15 40 15V19ZM36.5977 19H40V15H36.5977V19ZM30.5035 11L31.8008 15.4108L35.6383 14.2822L34.341 9.87133L30.5035 11ZM30.5035 11L30.5035 11L34.341 9.87133C33.8403 8.169 32.278 7 30.5035 7V11ZM18.4965 11H30.5035V7H18.4965V11ZM36.5977 15C36.154 15 35.7635 14.7077 35.6383 14.2822L31.8008 15.4108C32.4267 17.5388 34.3796 19 36.5977 19V15ZM13.3617 14.2822C13.2365 14.7078 12.846 15 12.4023 15V19C14.6204 19 16.5733 17.5387 17.1992 15.4108L13.3617 14.2822Z" fill="#23375A" mask="url(#path-1-inside-1)"/>
<path d="M16.5777 10.4357L18.4965 11V11L16.5777 10.4357ZM32.4223 10.4357L34.341 9.87133V9.87133L32.4223 10.4357ZM33.7196 14.8465L31.8008 15.4108L33.7196 14.8465ZM18.4965 11L18.4965 11V7C16.722 7 15.1597 8.169 14.659 9.87134L18.4965 11ZM17.1992 15.4108L18.4965 11L14.659 9.87133L13.3617 14.2822L17.1992 15.4108ZM8 19H12.4023V15H8V19ZM2 25C2 21.6863 4.68629 19 8 19V15C2.47715 15 -2 19.4772 -2 25H2ZM2 36V25H-2V36H2ZM8 42C4.68629 42 2 39.3137 2 36H-2C-2 41.5228 2.47715 46 8 46V42ZM40 42H8V46H40V42ZM46 36C46 39.3137 43.3137 42 40 42V46C45.5228 46 50 41.5228 50 36H46ZM46 25V36H50V25H46ZM40 19C43.3137 19 46 21.6863 46 25H50C50 19.4772 45.5228 15 40 15V19ZM36.5977 19H40V15H36.5977V19ZM30.5035 11L31.8008 15.4108L35.6383 14.2822L34.341 9.87133L30.5035 11ZM30.5035 11L30.5035 11L34.341 9.87133C33.8403 8.169 32.278 7 30.5035 7V11ZM18.4965 11H30.5035V7H18.4965V11ZM36.5977 15C36.154 15 35.7635 14.7077 35.6383 14.2822L31.8008 15.4108C32.4267 17.5388 34.3796 19 36.5977 19V15ZM13.3617 14.2822C13.2365 14.7078 12.846 15 12.4023 15V19C14.6204 19 16.5733 17.5387 17.1992 15.4108L13.3617 14.2822Z" fill="#23375A" mask="url(#path-1-inside-1)"/>
<line x1="34.1429" y1="21.8571" x2="39.8571" y2="21.8571" stroke="#FF498B" stroke-width="2.28571" stroke-linecap="round"/>
<circle cx="24.5" cy="29.5" r="7.5" stroke="#FF498B" stroke-width="2"/>
</svg>
