<svg width="29" height="27" viewBox="0 0 29 27" fill="none" xmlns="http://www.w3.org/2000/svg">
<rect x="27.5143" y="24.0487" width="25.7591" height="19.9724" rx="0.986201" transform="rotate(-180 27.5143 24.0487)" stroke="white" stroke-width="1.4026"/>
<rect x="27.5143" y="24.0487" width="25.7591" height="19.9724" rx="0.986201" transform="rotate(-180 27.5143 24.0487)" stroke="white" stroke-width="1.4026"/>
<rect x="12.2357" y="20.6737" width="7.65129" height="7.5974" rx="0.986201" transform="rotate(-180 12.2357 20.6737)" stroke="white" stroke-width="1.4026"/>
<rect x="12.2357" y="20.6737" width="7.65129" height="7.5974" rx="0.986201" transform="rotate(-180 12.2357 20.6737)" stroke="white" stroke-width="1.4026"/>
<rect x="24.119" y="20.6737" width="7.65129" height="7.5974" rx="0.986201" transform="rotate(-180 24.119 20.6737)" stroke="white" stroke-width="1.4026"/>
<rect x="24.119" y="20.6737" width="7.65129" height="7.5974" rx="0.986201" transform="rotate(-180 24.119 20.6737)" stroke="white" stroke-width="1.4026"/>
<path d="M27.6497 9.84375L1.61972 9.84375" stroke="white" stroke-width="1.28571" stroke-linecap="round"/>
<path d="M4.44922 5.625L4.44922 1.6875" stroke="white" stroke-width="1.28571" stroke-linecap="round"/>
<path d="M8.41016 5.625L8.41016 1.6875" stroke="white" stroke-width="1.28571" stroke-linecap="round"/>
<path d="M12.3713 5.625L12.3713 1.6875" stroke="white" stroke-width="1.28571" stroke-linecap="round"/>
<path d="M16.3323 5.625L16.3323 1.6875" stroke="white" stroke-width="1.28571" stroke-linecap="round"/>
<path d="M20.2935 5.625L20.2935 1.6875" stroke="white" stroke-width="1.28571" stroke-linecap="round"/>
<path d="M24.2544 5.625L24.2544 1.6875" stroke="white" stroke-width="1.28571" stroke-linecap="round"/>
</svg>
