<svg width="48" height="48" viewBox="0 0 48 48" fill="none" xmlns="http://www.w3.org/2000/svg">
<path d="M26.3622 41.6522C26.3622 42.0915 26.1562 42.6015 25.5937 43.1642C25.027 43.7311 24.1538 44.29 22.9907 44.7821C20.6687 45.7645 17.3876 46.3974 13.7083 46.3974C10.0291 46.3974 6.74795 45.7645 4.42595 44.7821C3.26288 44.29 2.38971 43.7311 1.823 43.1642C1.26044 42.6015 1.05449 42.0915 1.05449 41.6522C1.05449 41.213 1.26044 40.703 1.823 40.1403C2.38971 39.5734 3.26288 39.0145 4.42595 38.5224C6.74795 37.54 10.0291 36.9071 13.7083 36.9071C17.3876 36.9071 20.6687 37.54 22.9907 38.5224C24.1538 39.0145 25.027 39.5734 25.5937 40.1403C26.1562 40.703 26.3622 41.213 26.3622 41.6522Z" stroke="#23375A" stroke-width="2.10897"/>
<path d="M26.3622 41.6522C26.3622 42.0915 26.1562 42.6015 25.5937 43.1642C25.027 43.7311 24.1538 44.29 22.9907 44.7821C20.6687 45.7645 17.3876 46.3974 13.7083 46.3974C10.0291 46.3974 6.74795 45.7645 4.42595 44.7821C3.26288 44.29 2.38971 43.7311 1.823 43.1642C1.26044 42.6015 1.05449 42.0915 1.05449 41.6522C1.05449 41.213 1.26044 40.703 1.823 40.1403C2.38971 39.5734 3.26288 39.0145 4.42595 38.5224C6.74795 37.54 10.0291 36.9071 13.7083 36.9071C17.3876 36.9071 20.6687 37.54 22.9907 38.5224C24.1538 39.0145 25.027 39.5734 25.5937 40.1403C26.1562 40.703 26.3622 41.213 26.3622 41.6522Z" stroke="#23375A" stroke-width="2.10897"/>
<path d="M26.9455 13.9629C26.9455 15.7118 26.3631 18.272 25.3663 21.2031C24.3786 24.1073 23.0169 27.282 21.5311 30.224C20.0431 33.1704 18.4473 35.85 17.0006 37.7771C16.275 38.7436 15.6111 39.488 15.0404 39.98C14.4263 40.5093 14.0901 40.5978 14 40.5978C13.9099 40.5978 13.5737 40.5093 12.9596 39.98C12.3889 39.488 11.725 38.7436 10.9994 37.7771C9.55266 35.85 7.95693 33.1704 6.4689 30.224C4.98312 27.282 3.6214 24.1073 2.6337 21.2031C1.63688 18.272 1.05449 15.7118 1.05449 13.9629C1.05449 6.8364 6.84775 1.05449 14 1.05449C21.1523 1.05449 26.9455 6.8364 26.9455 13.9629Z" fill="white"/>
<path d="M26.9455 13.9629C26.9455 15.7118 26.3631 18.272 25.3663 21.2031C24.3786 24.1073 23.0169 27.282 21.5311 30.224C20.0431 33.1704 18.4473 35.85 17.0006 37.7771C16.275 38.7436 15.6111 39.488 15.0404 39.98C14.4263 40.5093 14.0901 40.5978 14 40.5978C13.9099 40.5978 13.5737 40.5093 12.9596 39.98C12.3889 39.488 11.725 38.7436 10.9994 37.7771C9.55266 35.85 7.95693 33.1704 6.4689 30.224C4.98312 27.282 3.6214 24.1073 2.6337 21.2031C1.63688 18.272 1.05449 15.7118 1.05449 13.9629C1.05449 6.8364 6.84775 1.05449 14 1.05449C21.1523 1.05449 26.9455 6.8364 26.9455 13.9629Z" stroke="#23375A" stroke-width="2.10897"/>
<path d="M26.9455 13.9629C26.9455 15.7118 26.3631 18.272 25.3663 21.2031C24.3786 24.1073 23.0169 27.282 21.5311 30.224C20.0431 33.1704 18.4473 35.85 17.0006 37.7771C16.275 38.7436 15.6111 39.488 15.0404 39.98C14.4263 40.5093 14.0901 40.5978 14 40.5978C13.9099 40.5978 13.5737 40.5093 12.9596 39.98C12.3889 39.488 11.725 38.7436 10.9994 37.7771C9.55266 35.85 7.95693 33.1704 6.4689 30.224C4.98312 27.282 3.6214 24.1073 2.6337 21.2031C1.63688 18.272 1.05449 15.7118 1.05449 13.9629C1.05449 6.8364 6.84775 1.05449 14 1.05449C21.1523 1.05449 26.9455 6.8364 26.9455 13.9629Z" stroke="#23375A" stroke-width="2.10897"/>
<circle cx="14.2356" cy="14.2356" r="6.85417" stroke="#FF498B" stroke-width="2.10897"/>
</svg>
