<svg width="48" height="48" viewBox="0 0 48 48" fill="none" xmlns="http://www.w3.org/2000/svg">
<rect x="1.14286" y="7.99999" width="29.7143" height="38.8571" rx="2.28571" stroke="#23375A" stroke-width="2.28571"/>
<rect x="1.14286" y="7.99999" width="29.7143" height="38.8571" rx="2.28571" stroke="#23375A" stroke-width="2.28571"/>
<path d="M10.2857 3.42857C10.2857 2.16621 11.3091 1.14286 12.5714 1.14286H19.4286C20.6909 1.14286 21.7143 2.16621 21.7143 3.42857V8H10.2857V3.42857Z" stroke="#23375A" stroke-width="2.28571"/>
<path d="M10.2857 3.42857C10.2857 2.16621 11.3091 1.14286 12.5714 1.14286H19.4286C20.6909 1.14286 21.7143 2.16621 21.7143 3.42857V8H10.2857V3.42857Z" stroke="#23375A" stroke-width="2.28571"/>
<line x1="9.14286" y1="14.8572" x2="9.14286" y2="41.1429" stroke="#FF498B" stroke-width="2.28571" stroke-linecap="round"/>
<line x1="16" y1="14.8572" x2="16" y2="41.1429" stroke="#FF498B" stroke-width="2.28571" stroke-linecap="round"/>
<line x1="22.8571" y1="14.8572" x2="22.8571" y2="41.1429" stroke="#FF498B" stroke-width="2.28571" stroke-linecap="round"/>
</svg>
